<!DOCTYPE svg PUBLIC "-//W3C//DTD SVG 1.1//EN" "http://www.w3.org/Graphics/SVG/1.1/DTD/svg11.dtd">
<!-- Uploaded to: SVG Repo, www.svgrepo.com, Transformed by: SVG Repo Mixer Tools -->
<svg fill="#ffffff" height="800px" width="800px" version="1.1" id="Layer_1" xmlns="http://www.w3.org/2000/svg" xmlns:xlink="http://www.w3.org/1999/xlink" viewBox="0 0 512.059 512.059" xml:space="preserve" stroke="#ffffff" stroke-width="0.0051205899999999995">
<g id="SVGRepo_bgCarrier" stroke-width="0"/>
<g id="SVGRepo_tracerCarrier" stroke-linecap="round" stroke-linejoin="round"/>
<g id="SVGRepo_iconCarrier"> <g transform="translate(-1 -1)"> <g> <g> <path d="M486.623,216.815l-16.448,4.032c-46.383,11.367-95.144,7.328-138.585-10.918c-0.515-10.27-2.166-20.649-5.065-30.994 L293.034,59.283c-4.312-15.406-23.42-20.76-35.109-9.837l-19.2,17.941C189.974,113,119.7,131.016,53.434,114.797l-26.011-6.359 C11.568,104.562-2.589,119.2,1.814,134.916l33.515,119.637c18.768,66.986,83.095,110.149,151.994,107.281 c13.511,49.812,53.727,89.954,106.994,103.618c80.137,20.542,162.715-25.083,184.413-102.502l33.516-119.662 C516.649,227.567,502.481,212.927,486.623,216.815z M76.413,243.043l-23.726-84.696c74.477,15.177,152.12-4.841,208.673-53.932 l24.08,86.027c2.851,10.173,3.982,20.408,3.56,30.422c-0.063,0.496-0.112,0.998-0.142,1.508 c-2.445,42.267-32.171,79.18-75.263,92.111c-0.177,0.053-0.354,0.105-0.532,0.157c-1.298,0.383-2.605,0.748-3.926,1.087 c-0.062,0.016-0.124,0.031-0.186,0.047c-0.418,0.106-0.837,0.204-1.255,0.306c-1.677,0.389-3.591,0.756-6.974,1.363 c-0.589,0.106-1.163,0.247-1.731,0.398C144.36,326.691,90.859,294.602,76.413,243.043z M437.645,351.439 c-15.341,54.737-74.731,87.55-132.731,72.683c-36.994-9.49-64.95-36.445-75.391-69.915c0.139-0.045,0.274-0.096,0.413-0.142 c1.339-0.442,2.67-0.897,3.989-1.372c0.039-0.014,0.079-0.027,0.118-0.041c2.944-1.063,5.834-2.213,8.673-3.437 c0.062-0.027,0.124-0.054,0.185-0.081c42.13-18.227,72.43-53.788,83.86-95.273c42.843,15.628,89.388,19.981,134.766,12.312 L437.645,351.439z"/> <path d="M150.363,193.033H129.03c-11.782,0-21.333,9.551-21.333,21.333c0,11.782,9.551,21.333,21.333,21.333h21.333 c11.782,0,21.333-9.551,21.333-21.333C171.696,202.584,162.145,193.033,150.363,193.033z"/> <path d="M229.448,208.118l21.333-21.333c8.331-8.331,8.331-21.839,0-30.17c-8.331-8.331-21.839-8.331-30.17,0l-21.333,21.333 c-8.331,8.331-8.331,21.839,0,30.17C207.609,216.449,221.117,216.449,229.448,208.118z"/> </g> </g> </g> </g>
</svg>